# xmcd CD database file generated by Grip 3.2.0
# 
# Track frame offsets:
#       150
#       16537
#       28457
#       38569
#       54480
#       73759
#       87710
#       96653
#       114870
#       129330
#       148148
#       169864
# 
# Disc length: 2477 seconds
# 
# Revision: 3
# Processed by: cddbd v1.5.1PL2 Copyright (c) Steve Scherf et al.
# Submitted via: Grip 3.2.0
# 
DISCID=a609ab0c
DTITLE=Leon and Eric Bibb - A Family Affair
DYEAR=2002
DGENRE=Blues
TTITLE0=Oh, Had I a Golden Thread
TTITLE1=Sylvie
TTITLE2=Look Over Yonder
TTITLE3=Five Hundred Miles
TTITLE4=Love Like a Good Song
TTITLE5=Let Me Fly
TTITLE6=Deep River - I've Known Rivers - Mirey
TTITLE7=There's a River
TTITLE8=Turn On All The Lights
TTITLE9=Look Inside Your Heart
TTITLE10=Fields of Gold
TTITLE11=Balm in Gilead
EXTD=
EXTT0=
EXTT1=
EXTT2=
EXTT3=
EXTT4=
EXTT5=
EXTT6=
EXTT7=
EXTT8=
EXTT9=
EXTT10=
EXTT11=
PLAYORDER=
